<?xml version="1.0" encoding="UTF-8" standalone="no"?>
<!DOCTYPE svg PUBLIC "-//W3C//DTD SVG 1.1//EN"
 "http://www.w3.org/Graphics/SVG/1.1/DTD/svg11.dtd">
<!-- Generated by graphviz version 2.34.0 (20130907.0111)
 -->
<!-- Title: G Pages: 1 -->
<svg width="364pt" height="168pt"
 viewBox="0.00 0.00 364.00 168.00" xmlns="http://www.w3.org/2000/svg" xmlns:xlink="http://www.w3.org/1999/xlink">
<g id="graph0" class="graph" transform="scale(1 1) rotate(0) translate(4 164)">
<title>G</title>
<polygon fill="white" stroke="white" points="-4,4 -4,-164 360,-164 360,4 -4,4"/>
<g id="clust1" class="cluster"><title>cluster_Global</title>
<path fill="none" stroke="gray" d="M234,-8C234,-8 336,-8 336,-8 342,-8 348,-14 348,-20 348,-20 348,-140 348,-140 348,-146 342,-152 336,-152 336,-152 234,-152 234,-152 228,-152 222,-146 222,-140 222,-140 222,-20 222,-20 222,-14 228,-8 234,-8"/>
<text text-anchor="middle" x="285" y="-139.2" font-family="Times New Roman,serif" font-size="11.00" fill="gray">Global</text>
</g>
<g id="clust2" class="cluster"><title>cluster_\app</title>
<path fill="none" stroke="gray" d="M242,-16C242,-16 328,-16 328,-16 334,-16 340,-22 340,-28 340,-28 340,-112 340,-112 340,-118 334,-124 328,-124 328,-124 242,-124 242,-124 236,-124 230,-118 230,-112 230,-112 230,-28 230,-28 230,-22 236,-16 242,-16"/>
<text text-anchor="middle" x="285" y="-111.2" font-family="Times New Roman,serif" font-size="11.00" fill="gray">app</text>
</g>
<g id="clust3" class="cluster"><title>cluster_\app\models</title>
<path fill="none" stroke="gray" d="M250,-24C250,-24 320,-24 320,-24 326,-24 332,-30 332,-36 332,-36 332,-84 332,-84 332,-90 326,-96 320,-96 320,-96 250,-96 250,-96 244,-96 238,-90 238,-84 238,-84 238,-36 238,-36 238,-30 244,-24 250,-24"/>
<text text-anchor="middle" x="285" y="-83.2" font-family="Times New Roman,serif" font-size="11.00" fill="gray">models</text>
</g>
<!-- \\app\\models\\Manufacturer -->
<g id="node1" class="node"><title>\\app\\models\\Manufacturer</title>
<polygon fill="none" stroke="black" points="323.5,-68 246.5,-68 246.5,-32 323.5,-32 323.5,-68"/>
<text text-anchor="middle" x="285" y="-47.2" font-family="Times New Roman,serif" font-size="11.00">Manufacturer</text>
</g>
<!-- \\yii\\db\\ActiveRecord -->
<g id="node2" class="node"><title>\\yii\\db\\ActiveRecord</title>
<ellipse fill="none" stroke="black" cx="87" cy="-50" rx="87.1846" ry="18"/>
<text text-anchor="middle" x="87" y="-46.3" font-family="Times New Roman,serif" font-size="14.00" fill="gray">\yii\db\ActiveRecord</text>
</g>
<!-- \\app\\models\\Manufacturer&#45;&gt;\\yii\\db\\ActiveRecord -->
<g id="edge1" class="edge"><title>\\app\\models\\Manufacturer&#45;&gt;\\yii\\db\\ActiveRecord</title>
<path fill="none" stroke="black" d="M246.209,-50C228.459,-50 206.407,-50 184.458,-50"/>
<polygon fill="none" stroke="black" points="184.396,-46.5001 174.396,-50 184.396,-53.5001 184.396,-46.5001"/>
</g>
</g>
</svg>
